<svg width="322" height="159" viewBox="0 0 322 159" fill="none" xmlns="http://www.w3.org/2000/svg">
<rect y="87" width="72" height="72" fill="white"/>
<path d="M81.5056 105.014H85.6366C87.8722 105.014 89.1358 106.326 89.1358 108.108C89.1358 109.291 88.423 110.247 87.4672 110.571C88.585 110.846 89.4922 111.867 89.4922 113.292C89.4922 115.155 88.099 116.5 85.9444 116.5H81.5056V105.014ZM83.7088 109.761H85.2964C86.317 109.761 86.9326 109.194 86.9326 108.319C86.9326 107.444 86.3656 106.893 85.2802 106.893H83.7088V109.761ZM83.7088 114.637H85.5232C86.6086 114.637 87.2566 114.07 87.2566 113.147C87.2566 112.239 86.6734 111.608 85.5556 111.608H83.7088V114.637ZM99.0895 116.5L98.1337 113.876H93.4681L92.5123 116.5H90.1471L94.5535 105.014H97.1455L101.519 116.5H99.0895ZM95.8009 107.493L94.2133 111.834H97.3885L95.8009 107.493ZM108.318 116.5H106.164V108.53H108.318V116.5ZM105.905 105.921C105.905 105.176 106.504 104.577 107.233 104.577C107.978 104.577 108.561 105.176 108.561 105.921C108.561 106.634 107.978 107.234 107.233 107.234C106.504 107.234 105.905 106.634 105.905 105.921ZM112.669 111.915V116.5H110.514V108.53H112.604V109.518C113.09 108.692 114.046 108.319 114.905 108.319C116.881 108.319 117.788 109.728 117.788 111.478V116.5H115.634V111.851C115.634 110.96 115.196 110.263 114.159 110.263C113.22 110.263 112.669 110.992 112.669 111.915ZM131.192 116.5H123.999V105.014H131.192V107.12H126.235V109.745H130.722V111.737H126.235V114.394H131.192V116.5ZM135.197 111.915V116.5H133.043V108.53H135.132V109.518C135.618 108.692 136.574 108.319 137.433 108.319C139.409 108.319 140.316 109.728 140.316 111.478V116.5H138.162V111.851C138.162 110.96 137.724 110.263 136.688 110.263C135.748 110.263 135.197 110.992 135.197 111.915ZM141.97 116.937L143.914 116.419C144.06 117.294 144.756 117.926 145.777 117.926C147.138 117.926 147.899 117.245 147.899 115.706V115.123C147.575 115.641 146.83 116.144 145.68 116.144C143.558 116.144 141.97 114.507 141.97 112.272C141.97 110.166 143.493 108.384 145.68 108.384C146.943 108.384 147.672 108.935 147.948 109.469V108.53H150.021V115.641C150.021 117.828 148.839 119.821 145.842 119.821C143.655 119.821 142.197 118.46 141.97 116.937ZM146.052 114.297C147.154 114.297 147.932 113.503 147.932 112.272C147.932 111.041 147.089 110.263 146.052 110.263C144.983 110.263 144.141 111.041 144.141 112.272C144.141 113.519 144.935 114.297 146.052 114.297ZM154.371 116.5H152.217V104.771H154.371V116.5ZM158.722 116.5H156.567V108.53H158.722V116.5ZM156.308 105.921C156.308 105.176 156.908 104.577 157.637 104.577C158.382 104.577 158.965 105.176 158.965 105.921C158.965 106.634 158.382 107.234 157.637 107.234C156.908 107.234 156.308 106.634 156.308 105.921ZM160.383 114.281L162.23 113.876C162.279 114.507 162.749 115.091 163.688 115.091C164.401 115.091 164.741 114.718 164.741 114.297C164.741 113.94 164.498 113.649 163.883 113.519L162.83 113.276C161.291 112.936 160.594 112.013 160.594 110.895C160.594 109.469 161.858 108.287 163.575 108.287C165.843 108.287 166.604 109.728 166.701 110.587L164.903 110.992C164.838 110.522 164.498 109.923 163.591 109.923C163.024 109.923 162.57 110.263 162.57 110.717C162.57 111.105 162.862 111.348 163.299 111.429L164.433 111.672C166.005 111.996 166.799 112.952 166.799 114.119C166.799 115.415 165.794 116.743 163.704 116.743C161.307 116.743 160.481 115.188 160.383 114.281ZM170.698 111.818V116.5H168.543V104.771H170.698V109.194C171.216 108.578 172.091 108.319 172.853 108.319C174.878 108.319 175.817 109.728 175.817 111.478V116.5H173.663V111.851C173.663 110.96 173.225 110.263 172.188 110.263C171.281 110.263 170.747 110.943 170.698 111.818Z" fill="black"/>
<path d="M85.7144 140.743C83.3816 140.743 81.5834 139.285 81.5834 136.58V129.014H83.1548V136.531C83.1548 138.281 84.1106 139.269 85.7144 139.269C87.3344 139.269 88.2578 138.281 88.2578 136.531V129.014H89.8454V136.58C89.8454 139.285 88.0472 140.743 85.7144 140.743ZM93.9795 135.996V140.5H92.4567V132.708H93.9471V133.826C94.5141 132.854 95.4375 132.481 96.3447 132.481C98.2077 132.481 99.1311 133.826 99.1311 135.559V140.5H97.6083V135.818C97.6083 134.733 97.1547 133.858 95.7939 133.858C94.5951 133.858 93.9795 134.814 93.9795 135.996ZM103.069 140.5H101.563V132.708H103.069V140.5ZM101.222 129.759C101.222 129.144 101.708 128.658 102.308 128.658C102.923 128.658 103.409 129.144 103.409 129.759C103.409 130.359 102.923 130.845 102.308 130.845C101.708 130.845 101.222 130.359 101.222 129.759ZM112.524 132.708L109.413 140.5H107.874L104.715 132.708H106.433L108.652 138.718L110.888 132.708H112.524ZM115.038 135.802H119.299C119.267 134.684 118.538 133.809 117.161 133.809C115.881 133.809 115.103 134.798 115.038 135.802ZM119.526 137.827L120.838 138.281C120.401 139.658 119.153 140.743 117.339 140.743C115.249 140.743 113.418 139.22 113.418 136.58C113.418 134.133 115.184 132.465 117.144 132.465C119.542 132.465 120.887 134.117 120.887 136.547C120.887 136.742 120.87 136.936 120.854 137.033H114.99C115.022 138.426 116.027 139.398 117.339 139.398C118.602 139.398 119.234 138.702 119.526 137.827ZM127.178 132.627V134.247C126.951 134.214 126.725 134.198 126.514 134.198C125.234 134.198 124.376 134.879 124.376 136.596V140.5H122.853V132.708H124.343V134.069C124.91 132.87 125.882 132.578 126.676 132.578C126.887 132.578 127.097 132.611 127.178 132.627ZM128.179 138.475L129.556 137.989C129.653 138.799 130.269 139.447 131.37 139.447C132.229 139.447 132.699 138.961 132.699 138.41C132.699 137.924 132.342 137.552 131.694 137.406L130.366 137.114C129.151 136.855 128.422 136.029 128.422 134.927C128.422 133.599 129.669 132.465 131.192 132.465C133.331 132.465 133.995 133.858 134.157 134.555L132.812 135.057C132.747 134.652 132.423 133.761 131.192 133.761C130.415 133.761 129.896 134.263 129.896 134.798C129.896 135.267 130.188 135.608 130.787 135.737L132.051 136.013C133.46 136.32 134.205 137.179 134.205 138.329C134.205 139.431 133.282 140.743 131.354 140.743C129.216 140.743 128.309 139.366 128.179 138.475ZM137.73 140.5H136.224V132.708H137.73V140.5ZM135.883 129.759C135.883 129.144 136.369 128.658 136.969 128.658C137.584 128.658 138.07 129.144 138.07 129.759C138.07 130.359 137.584 130.845 136.969 130.845C136.369 130.845 135.883 130.359 135.883 129.759ZM142.373 130.245V132.708H144.058V134.085H142.373V138.135C142.373 138.848 142.665 139.204 143.459 139.204C143.653 139.204 143.929 139.172 144.058 139.139V140.435C143.929 140.484 143.54 140.581 143.021 140.581C141.693 140.581 140.851 139.771 140.851 138.362V134.085H139.36V132.708H139.781C140.624 132.708 140.98 132.189 140.98 131.509V130.245H142.373ZM148.095 143.756H146.426L148.37 139.641L145.017 132.708H146.767L149.197 138.086L151.529 132.708H153.166L148.095 143.756ZM161.892 139.382C163.188 139.382 164.322 138.41 164.322 136.596C164.322 134.798 163.188 133.826 161.892 133.826C160.596 133.826 159.462 134.798 159.462 136.596C159.462 138.41 160.596 139.382 161.892 139.382ZM161.892 132.465C164.224 132.465 165.877 134.231 165.877 136.596C165.877 138.977 164.224 140.743 161.892 140.743C159.559 140.743 157.906 138.977 157.906 136.596C157.906 134.231 159.559 132.465 161.892 132.465ZM171.818 134.085H169.939V140.5H168.368V134.085H166.926V132.708H168.368V131.396C168.368 129.662 169.518 128.723 170.927 128.723C171.446 128.723 171.77 128.836 171.835 128.885V130.245C171.754 130.213 171.559 130.148 171.17 130.148C170.636 130.148 169.939 130.407 169.939 131.477V132.708H171.818V134.085ZM179.159 140.5H177.539V129.014H179.159V140.5ZM183.509 140.5H181.987V128.771H183.509V140.5ZM187.553 140.5H186.03V128.771H187.553V140.5ZM191.58 140.5H190.073V132.708H191.58V140.5ZM189.733 129.759C189.733 129.144 190.219 128.658 190.819 128.658C191.434 128.658 191.92 129.144 191.92 129.759C191.92 130.359 191.434 130.845 190.819 130.845C190.219 130.845 189.733 130.359 189.733 129.759ZM195.624 135.996V140.5H194.101V132.708H195.591V133.826C196.158 132.854 197.082 132.481 197.989 132.481C199.852 132.481 200.775 133.826 200.775 135.559V140.5H199.253V135.818C199.253 134.733 198.799 133.858 197.438 133.858C196.239 133.858 195.624 134.814 195.624 135.996ZM206.674 139.382C207.97 139.382 209.104 138.41 209.104 136.596C209.104 134.798 207.97 133.826 206.674 133.826C205.378 133.826 204.244 134.798 204.244 136.596C204.244 138.41 205.378 139.382 206.674 139.382ZM206.674 132.465C209.007 132.465 210.659 134.231 210.659 136.596C210.659 138.977 209.007 140.743 206.674 140.743C204.341 140.743 202.689 138.977 202.689 136.596C202.689 134.231 204.341 132.465 206.674 132.465ZM214.168 140.5H212.661V132.708H214.168V140.5ZM212.321 129.759C212.321 129.144 212.807 128.658 213.406 128.658C214.022 128.658 214.508 129.144 214.508 129.759C214.508 130.359 214.022 130.845 213.406 130.845C212.807 130.845 212.321 130.359 212.321 129.759ZM216.073 138.475L217.45 137.989C217.547 138.799 218.163 139.447 219.264 139.447C220.123 139.447 220.593 138.961 220.593 138.41C220.593 137.924 220.236 137.552 219.588 137.406L218.26 137.114C217.045 136.855 216.316 136.029 216.316 134.927C216.316 133.599 217.563 132.465 219.086 132.465C221.225 132.465 221.889 133.858 222.051 134.555L220.706 135.057C220.641 134.652 220.317 133.761 219.086 133.761C218.309 133.761 217.79 134.263 217.79 134.798C217.79 135.267 218.082 135.608 218.681 135.737L219.945 136.013C221.354 136.32 222.099 137.179 222.099 138.329C222.099 139.431 221.176 140.743 219.248 140.743C217.11 140.743 216.203 139.366 216.073 138.475ZM227.737 138.41C227.737 137.017 228.758 136.239 230.103 136.045L232.209 135.737C232.678 135.672 232.808 135.429 232.808 135.154C232.808 134.393 232.306 133.761 231.123 133.761C230.054 133.761 229.455 134.425 229.357 135.332L227.899 134.992C228.061 133.502 229.406 132.465 231.091 132.465C233.424 132.465 234.331 133.793 234.331 135.316V139.22C234.331 139.901 234.396 140.306 234.428 140.5H232.938C232.905 140.306 232.857 140.014 232.857 139.447C232.516 139.998 231.739 140.743 230.346 140.743C228.758 140.743 227.737 139.641 227.737 138.41ZM230.556 139.463C231.804 139.463 232.808 138.864 232.808 137.163V136.806L230.427 137.163C229.779 137.26 229.293 137.633 229.293 138.329C229.293 138.912 229.779 139.463 230.556 139.463ZM238.851 130.245V132.708H240.536V134.085H238.851V138.135C238.851 138.848 239.143 139.204 239.937 139.204C240.131 139.204 240.406 139.172 240.536 139.139V140.435C240.406 140.484 240.018 140.581 239.499 140.581C238.171 140.581 237.328 139.771 237.328 138.362V134.085H235.838V132.708H236.259C237.102 132.708 237.458 132.189 237.458 131.509V130.245H238.851ZM251.805 140.743C248.841 140.743 246.103 138.588 246.103 134.749C246.103 130.91 248.954 128.771 251.805 128.771C254.43 128.771 256.276 130.197 256.86 132.416L255.385 132.935C254.948 131.201 253.684 130.229 251.805 130.229C249.715 130.229 247.723 131.752 247.723 134.749C247.723 137.746 249.715 139.285 251.805 139.285C253.765 139.285 254.997 138.102 255.466 136.531L256.876 137.049C256.26 139.204 254.446 140.743 251.805 140.743ZM260.238 135.915V140.5H258.715V128.771H260.238V133.615C260.805 132.789 261.712 132.481 262.603 132.481C264.466 132.481 265.39 133.826 265.39 135.559V140.5H263.867V135.818C263.867 134.733 263.413 133.858 262.052 133.858C260.886 133.858 260.27 134.765 260.238 135.915ZM269.328 140.5H267.821V132.708H269.328V140.5ZM267.481 129.759C267.481 129.144 267.967 128.658 268.566 128.658C269.182 128.658 269.668 129.144 269.668 129.759C269.668 130.359 269.182 130.845 268.566 130.845C267.967 130.845 267.481 130.359 267.481 129.759ZM275.251 133.874C274.02 133.874 272.886 134.781 272.886 136.596C272.886 138.378 274.003 139.334 275.267 139.334C276.725 139.334 277.26 138.345 277.438 137.73L278.782 138.313C278.41 139.431 277.292 140.743 275.267 140.743C272.999 140.743 271.33 138.961 271.33 136.596C271.33 134.166 273.031 132.465 275.251 132.465C277.324 132.465 278.394 133.761 278.718 134.943L277.341 135.527C277.146 134.765 276.579 133.874 275.251 133.874ZM280.12 138.41C280.12 137.017 281.14 136.239 282.485 136.045L284.591 135.737C285.061 135.672 285.19 135.429 285.19 135.154C285.19 134.393 284.688 133.761 283.506 133.761C282.436 133.761 281.837 134.425 281.74 135.332L280.282 134.992C280.444 133.502 281.788 132.465 283.473 132.465C285.806 132.465 286.713 133.793 286.713 135.316V139.22C286.713 139.901 286.778 140.306 286.81 140.5H285.32C285.288 140.306 285.239 140.014 285.239 139.447C284.899 139.998 284.121 140.743 282.728 140.743C281.14 140.743 280.12 139.641 280.12 138.41ZM282.939 139.463C284.186 139.463 285.19 138.864 285.19 137.163V136.806L282.809 137.163C282.161 137.26 281.675 137.633 281.675 138.329C281.675 138.912 282.161 139.463 282.939 139.463ZM288.656 140.921L290.13 140.581C290.244 141.666 291.07 142.493 292.253 142.493C293.889 142.493 294.634 141.65 294.634 139.965V138.848C294.261 139.56 293.419 140.127 292.253 140.127C290.179 140.127 288.672 138.556 288.672 136.353C288.672 134.247 290.114 132.562 292.253 132.562C293.451 132.562 294.261 133.016 294.65 133.793V132.708H296.157V139.917C296.157 141.893 295.185 143.821 292.253 143.821C290.309 143.821 288.851 142.59 288.656 140.921ZM292.479 138.848C293.792 138.848 294.699 137.859 294.699 136.353C294.699 134.846 293.792 133.858 292.479 133.858C291.135 133.858 290.228 134.846 290.228 136.353C290.228 137.876 291.102 138.848 292.479 138.848ZM302.143 139.382C303.439 139.382 304.573 138.41 304.573 136.596C304.573 134.798 303.439 133.826 302.143 133.826C300.847 133.826 299.713 134.798 299.713 136.596C299.713 138.41 300.847 139.382 302.143 139.382ZM302.143 132.465C304.476 132.465 306.128 134.231 306.128 136.596C306.128 138.977 304.476 140.743 302.143 140.743C299.81 140.743 298.158 138.977 298.158 136.596C298.158 134.231 299.81 132.465 302.143 132.465Z" fill="black"/>
<rect width="72" height="72" fill="white"/>
<path d="M86.9501 29.743C83.7425 29.743 81.0695 27.4264 81.0695 23.7652C81.0695 20.104 83.8397 17.7712 86.9177 17.7712C90.0929 17.7712 91.7291 19.7152 92.1827 21.5782L90.0767 22.2424C89.8013 21.1408 88.9103 19.9258 86.9177 19.9258C85.2005 19.9258 83.3861 21.157 83.3861 23.7652C83.3861 26.2114 85.1033 27.556 86.9501 27.556C88.9103 27.556 89.8661 26.2762 90.1739 25.207L92.2637 25.8388C91.8263 27.6046 90.1739 29.743 86.9501 29.743ZM95.4366 24.6076H99.0006C98.9682 23.8138 98.4498 23.0362 97.2186 23.0362C96.1008 23.0362 95.4852 23.8786 95.4366 24.6076ZM99.2112 26.6812L101.009 27.2158C100.604 28.5928 99.3408 29.743 97.3806 29.743C95.1936 29.743 93.2658 28.1716 93.2658 25.4824C93.2658 22.939 95.145 21.2866 97.1862 21.2866C99.6486 21.2866 101.123 22.858 101.123 25.4176C101.123 25.7254 101.09 26.0494 101.09 26.0818H95.388C95.4366 27.1348 96.3276 27.8962 97.3968 27.8962C98.4012 27.8962 98.952 27.394 99.2112 26.6812ZM107.708 21.4972V23.668C107.465 23.6194 107.255 23.6032 107.06 23.6032C105.959 23.6032 105.003 24.1378 105.003 25.855V29.5H102.848V21.5296H104.938V22.7122C105.424 21.6592 106.526 21.4648 107.206 21.4648C107.384 21.4648 107.546 21.481 107.708 21.4972ZM111.932 19.1482V21.5296H113.536V23.4412H111.932V26.7784C111.932 27.475 112.256 27.7018 112.871 27.7018C113.131 27.7018 113.422 27.6694 113.536 27.637V29.419C113.341 29.5 112.952 29.6134 112.321 29.6134C110.765 29.6134 109.793 28.69 109.793 27.151V23.4412H108.352V21.5296H108.757C109.599 21.5296 109.988 20.9788 109.988 20.266V19.1482H111.932ZM117.422 29.5H115.267V21.5296H117.422V29.5ZM115.008 18.9214C115.008 18.1762 115.608 17.5768 116.337 17.5768C117.082 17.5768 117.665 18.1762 117.665 18.9214C117.665 19.6342 117.082 20.2336 116.337 20.2336C115.608 20.2336 115.008 19.6342 115.008 18.9214ZM125.693 23.3764H122.502V29.5H120.331V23.3764H119.002V21.5296H120.331V20.6224C120.331 18.8242 121.465 17.6578 123.231 17.6578C123.684 17.6578 124.122 17.7388 124.3 17.8198V19.6342C124.186 19.6018 123.976 19.5532 123.619 19.5532C123.15 19.5532 122.502 19.7638 122.502 20.6548V21.5296H127.831V29.5H125.693V23.3764ZM125.434 18.9052C125.434 18.16 126.033 17.5606 126.762 17.5606C127.491 17.5606 128.091 18.16 128.091 18.9052C128.091 19.6342 127.491 20.2174 126.762 20.2174C126.033 20.2174 125.434 19.6342 125.434 18.9052ZM133.721 23.2792C132.62 23.2792 131.696 24.073 131.696 25.5148C131.696 26.9566 132.636 27.7666 133.738 27.7666C134.839 27.7666 135.39 27.0376 135.568 26.422L137.464 27.0538C137.107 28.3822 135.86 29.743 133.738 29.743C131.389 29.743 129.542 27.961 129.542 25.5148C129.542 23.0524 131.356 21.2866 133.673 21.2866C135.844 21.2866 137.075 22.6312 137.415 23.9758L135.487 24.6238C135.293 23.9596 134.791 23.2792 133.721 23.2792ZM138.56 27.3292C138.56 25.9036 139.613 25.1098 140.941 24.9154L142.901 24.6238C143.355 24.559 143.501 24.3322 143.501 24.0568C143.501 23.4898 143.063 23.02 142.156 23.02C141.217 23.02 140.698 23.6194 140.633 24.316L138.722 23.911C138.851 22.6636 140.002 21.2866 142.14 21.2866C144.667 21.2866 145.607 22.7122 145.607 24.316V28.2364C145.607 28.6576 145.655 29.2246 145.704 29.5H143.728C143.679 29.2894 143.647 28.852 143.647 28.5442C143.242 29.176 142.48 29.7268 141.298 29.7268C139.597 29.7268 138.56 28.5766 138.56 27.3292ZM141.751 28.123C142.658 28.123 143.501 27.6856 143.501 26.2762V25.9198L141.703 26.1952C141.152 26.2762 140.714 26.584 140.714 27.1996C140.714 27.6694 141.055 28.123 141.751 28.123ZM150.486 19.1482V21.5296H152.09V23.4412H150.486V26.7784C150.486 27.475 150.81 27.7018 151.425 27.7018C151.685 27.7018 151.976 27.6694 152.09 27.637V29.419C151.895 29.5 151.506 29.6134 150.875 29.6134C149.319 29.6134 148.347 28.69 148.347 27.151V23.4412H146.906V21.5296H147.311C148.153 21.5296 148.542 20.9788 148.542 20.266V19.1482H150.486ZM155.427 24.6076H158.991C158.959 23.8138 158.44 23.0362 157.209 23.0362C156.091 23.0362 155.476 23.8786 155.427 24.6076ZM159.202 26.6812L161 27.2158C160.595 28.5928 159.331 29.743 157.371 29.743C155.184 29.743 153.256 28.1716 153.256 25.4824C153.256 22.939 155.136 21.2866 157.177 21.2866C159.639 21.2866 161.113 22.858 161.113 25.4176C161.113 25.7254 161.081 26.0494 161.081 26.0818H155.379C155.427 27.1348 156.318 27.8962 157.387 27.8962C158.392 27.8962 158.943 27.394 159.202 26.6812ZM168.838 29.5H166.683V21.5296H168.838V29.5ZM166.424 18.9214C166.424 18.1762 167.024 17.5768 167.753 17.5768C168.498 17.5768 169.081 18.1762 169.081 18.9214C169.081 19.6342 168.498 20.2336 167.753 20.2336C167.024 20.2336 166.424 19.6342 166.424 18.9214ZM173.189 24.9154V29.5H171.034V21.5296H173.124V22.5178C173.61 21.6916 174.566 21.319 175.424 21.319C177.401 21.319 178.308 22.7284 178.308 24.478V29.5H176.153V24.8506C176.153 23.9596 175.716 23.263 174.679 23.263C173.739 23.263 173.189 23.992 173.189 24.9154ZM188.828 29.7592C186.382 29.7592 184.421 28.2526 184.421 25.4338V18.0142H186.657V25.2718C186.657 26.7784 187.499 27.5722 188.828 27.5722C190.189 27.5722 191.015 26.7784 191.015 25.2718V18.0142H193.25V25.4338C193.25 28.2526 191.29 29.7592 188.828 29.7592ZM204.902 18.0142L201.143 23.7652L204.918 29.5H202.213L199.734 25.531L197.239 29.5H194.615L198.389 23.749L194.631 18.0142H197.32L199.783 21.9832L202.294 18.0142H204.902ZM213.008 18.0142L207.387 29.5H205.443L211.048 18.0142H213.008ZM219.045 29.7592C216.598 29.7592 214.638 28.2526 214.638 25.4338V18.0142H216.874V25.2718C216.874 26.7784 217.716 27.5722 219.045 27.5722C220.405 27.5722 221.232 26.7784 221.232 25.2718V18.0142H223.467V25.4338C223.467 28.2526 221.507 29.7592 219.045 29.7592ZM228.331 29.5H226.063V18.0142H228.331V29.5ZM237.094 27.4264H238.876C240.756 27.4264 242.327 26.26 242.327 23.7652C242.327 21.2704 240.772 20.0878 238.893 20.0878H237.094V27.4264ZM238.957 29.5H234.859V18.0142H238.974C242.246 18.0142 244.644 20.1364 244.644 23.7652C244.644 27.394 242.23 29.5 238.957 29.5ZM248.134 24.6076H251.698C251.666 23.8138 251.147 23.0362 249.916 23.0362C248.798 23.0362 248.183 23.8786 248.134 24.6076ZM251.909 26.6812L253.707 27.2158C253.302 28.5928 252.038 29.743 250.078 29.743C247.891 29.743 245.963 28.1716 245.963 25.4824C245.963 22.939 247.843 21.2866 249.884 21.2866C252.346 21.2866 253.82 22.858 253.82 25.4176C253.82 25.7254 253.788 26.0494 253.788 26.0818H248.086C248.134 27.1348 249.025 27.8962 250.094 27.8962C251.099 27.8962 251.65 27.394 251.909 26.6812ZM255.012 27.2806L256.858 26.8756C256.907 27.5074 257.377 28.0906 258.316 28.0906C259.029 28.0906 259.369 27.718 259.369 27.2968C259.369 26.9404 259.126 26.6488 258.511 26.5192L257.458 26.2762C255.919 25.936 255.222 25.0126 255.222 23.8948C255.222 22.4692 256.486 21.2866 258.203 21.2866C260.471 21.2866 261.232 22.7284 261.33 23.587L259.531 23.992C259.467 23.5222 259.126 22.9228 258.219 22.9228C257.652 22.9228 257.199 23.263 257.199 23.7166C257.199 24.1054 257.49 24.3484 257.928 24.4294L259.062 24.6724C260.633 24.9964 261.427 25.9522 261.427 27.1186C261.427 28.4146 260.422 29.743 258.333 29.743C255.935 29.743 255.109 28.1878 255.012 27.2806ZM265.326 29.5H263.172V21.5296H265.326V29.5ZM262.912 18.9214C262.912 18.1762 263.512 17.5768 264.241 17.5768C264.986 17.5768 265.569 18.1762 265.569 18.9214C265.569 19.6342 264.986 20.2336 264.241 20.2336C263.512 20.2336 262.912 19.6342 262.912 18.9214ZM267.052 29.9374L268.996 29.419C269.142 30.2938 269.839 30.9256 270.859 30.9256C272.22 30.9256 272.982 30.2452 272.982 28.7062V28.123C272.658 28.6414 271.912 29.1436 270.762 29.1436C268.64 29.1436 267.052 27.5074 267.052 25.2718C267.052 23.1658 268.575 21.3838 270.762 21.3838C272.026 21.3838 272.755 21.9346 273.03 22.4692V21.5296H275.104V28.6414C275.104 30.8284 273.921 32.821 270.924 32.821C268.737 32.821 267.279 31.4602 267.052 29.9374ZM271.135 27.2968C272.236 27.2968 273.014 26.503 273.014 25.2718C273.014 24.0406 272.172 23.263 271.135 23.263C270.066 23.263 269.223 24.0406 269.223 25.2718C269.223 26.5192 270.017 27.2968 271.135 27.2968ZM279.454 24.9154V29.5H277.299V21.5296H279.389V22.5178C279.875 21.6916 280.831 21.319 281.689 21.319C283.666 21.319 284.573 22.7284 284.573 24.478V29.5H282.418V24.8506C282.418 23.9596 281.981 23.263 280.944 23.263C280.004 23.263 279.454 23.992 279.454 24.9154Z" fill="black"/>
<path d="M91.4735 53.5H89.8211L83.6165 44.1364V53.5H82.0289V42.0142H84.1511L89.8859 50.827V42.0142H91.4735V53.5ZM97.6002 52.3822C98.8962 52.3822 100.03 51.4102 100.03 49.5958C100.03 47.7976 98.8962 46.8256 97.6002 46.8256C96.3042 46.8256 95.1702 47.7976 95.1702 49.5958C95.1702 51.4102 96.3042 52.3822 97.6002 52.3822ZM97.6002 45.4648C99.933 45.4648 101.585 47.2306 101.585 49.5958C101.585 51.9772 99.933 53.743 97.6002 53.743C95.2674 53.743 93.615 51.9772 93.615 49.5958C93.615 47.2306 95.2674 45.4648 97.6002 45.4648ZM107.913 45.6268V47.2468C107.686 47.2144 107.459 47.1982 107.249 47.1982C105.969 47.1982 105.11 47.8786 105.11 49.5958V53.5H103.587V45.7078H105.078V47.0686C105.645 45.8698 106.617 45.5782 107.411 45.5782C107.621 45.5782 107.832 45.6106 107.913 45.6268ZM111.651 43.2454V45.7078H113.336V47.0848H111.651V51.1348C111.651 51.8476 111.943 52.204 112.737 52.204C112.931 52.204 113.207 52.1716 113.336 52.1392V53.4352C113.207 53.4838 112.818 53.581 112.299 53.581C110.971 53.581 110.129 52.771 110.129 51.3616V47.0848H108.638V45.7078H109.059C109.902 45.7078 110.258 45.1894 110.258 44.509V43.2454H111.651ZM116.725 48.9154V53.5H115.202V41.7712H116.725V46.615C117.292 45.7888 118.199 45.481 119.09 45.481C120.953 45.481 121.877 46.8256 121.877 48.559V53.5H120.354V48.8182C120.354 47.7328 119.9 46.858 118.539 46.858C117.373 46.858 116.757 47.7652 116.725 48.9154ZM128.941 45.7078H130.513L132.538 51.5722L134.255 45.7078H135.859L133.331 53.5H131.76L129.686 47.5708L127.661 53.5H126.058L123.498 45.7078H125.167L126.916 51.5722L128.941 45.7078ZM138.534 48.802H142.795C142.762 47.6842 142.033 46.8094 140.656 46.8094C139.376 46.8094 138.599 47.7976 138.534 48.802ZM143.021 50.827L144.334 51.2806C143.896 52.6576 142.649 53.743 140.834 53.743C138.745 53.743 136.914 52.2202 136.914 49.5796C136.914 47.1334 138.68 45.4648 140.64 45.4648C143.038 45.4648 144.382 47.1172 144.382 49.5472C144.382 49.7416 144.366 49.936 144.35 50.0332H138.485C138.518 51.4264 139.522 52.3984 140.834 52.3984C142.098 52.3984 142.73 51.7018 143.021 50.827ZM145.733 51.475L147.11 50.989C147.207 51.799 147.823 52.447 148.924 52.447C149.783 52.447 150.253 51.961 150.253 51.4102C150.253 50.9242 149.896 50.5516 149.248 50.4058L147.92 50.1142C146.705 49.855 145.976 49.0288 145.976 47.9272C145.976 46.5988 147.223 45.4648 148.746 45.4648C150.884 45.4648 151.549 46.858 151.711 47.5546L150.366 48.0568C150.301 47.6518 149.977 46.7608 148.746 46.7608C147.968 46.7608 147.45 47.263 147.45 47.7976C147.45 48.2674 147.742 48.6076 148.341 48.7372L149.605 49.0126C151.014 49.3204 151.759 50.179 151.759 51.3292C151.759 52.4308 150.836 53.743 148.908 53.743C146.77 53.743 145.862 52.366 145.733 51.475ZM155.9 43.2454V45.7078H157.584V47.0848H155.9V51.1348C155.9 51.8476 156.191 52.204 156.985 52.204C157.179 52.204 157.455 52.1716 157.584 52.1392V53.4352C157.455 53.4838 157.066 53.581 156.548 53.581C155.219 53.581 154.377 52.771 154.377 51.3616V47.0848H152.886V45.7078H153.308C154.15 45.7078 154.506 45.1894 154.506 44.509V43.2454H155.9ZM160.489 48.802H164.749C164.717 47.6842 163.988 46.8094 162.611 46.8094C161.331 46.8094 160.553 47.7976 160.489 48.802ZM164.976 50.827L166.288 51.2806C165.851 52.6576 164.603 53.743 162.789 53.743C160.699 53.743 158.869 52.2202 158.869 49.5796C158.869 47.1334 160.634 45.4648 162.595 45.4648C164.992 45.4648 166.337 47.1172 166.337 49.5472C166.337 49.7416 166.321 49.936 166.304 50.0332H160.44C160.472 51.4264 161.477 52.3984 162.789 52.3984C164.053 52.3984 164.684 51.7018 164.976 50.827ZM172.629 45.6268V47.2468C172.402 47.2144 172.175 47.1982 171.964 47.1982C170.685 47.1982 169.826 47.8786 169.826 49.5958V53.5H168.303V45.7078H169.794V47.0686C170.361 45.8698 171.333 45.5782 172.126 45.5782C172.337 45.5782 172.548 45.6106 172.629 45.6268ZM175.768 48.9964V53.5H174.245V45.7078H175.735V46.8256C176.302 45.8536 177.226 45.481 178.133 45.481C179.996 45.481 180.919 46.8256 180.919 48.559V53.5H179.397V48.8182C179.397 47.7328 178.943 46.858 177.582 46.858C176.383 46.858 175.768 47.8138 175.768 48.9964ZM191.815 53.743C189.482 53.743 187.684 52.285 187.684 49.5796V42.0142H189.255V49.531C189.255 51.2806 190.211 52.2688 191.815 52.2688C193.435 52.2688 194.358 51.2806 194.358 49.531V42.0142H195.946V49.5796C195.946 52.285 194.147 53.743 191.815 53.743ZM200.08 48.9964V53.5H198.557V45.7078H200.047V46.8256C200.614 45.8536 201.538 45.481 202.445 45.481C204.308 45.481 205.231 46.8256 205.231 48.559V53.5H203.708V48.8182C203.708 47.7328 203.255 46.858 201.894 46.858C200.695 46.858 200.08 47.8138 200.08 48.9964ZM209.169 53.5H207.663V45.7078H209.169V53.5ZM207.323 42.7594C207.323 42.1438 207.809 41.6578 208.408 41.6578C209.024 41.6578 209.51 42.1438 209.51 42.7594C209.51 43.3588 209.024 43.8448 208.408 43.8448C207.809 43.8448 207.323 43.3588 207.323 42.7594ZM218.624 45.7078L215.514 53.5H213.975L210.816 45.7078H212.533L214.752 51.718L216.988 45.7078H218.624ZM221.139 48.802H225.399C225.367 47.6842 224.638 46.8094 223.261 46.8094C221.981 46.8094 221.203 47.7976 221.139 48.802ZM225.626 50.827L226.938 51.2806C226.501 52.6576 225.253 53.743 223.439 53.743C221.349 53.743 219.519 52.2202 219.519 49.5796C219.519 47.1334 221.284 45.4648 223.245 45.4648C225.642 45.4648 226.987 47.1172 226.987 49.5472C226.987 49.7416 226.971 49.936 226.954 50.0332H221.09C221.122 51.4264 222.127 52.3984 223.439 52.3984C224.703 52.3984 225.334 51.7018 225.626 50.827ZM233.278 45.6268V47.2468C233.052 47.2144 232.825 47.1982 232.614 47.1982C231.334 47.1982 230.476 47.8786 230.476 49.5958V53.5H228.953V45.7078H230.443V47.0686C231.01 45.8698 231.982 45.5782 232.776 45.5782C232.987 45.5782 233.197 45.6106 233.278 45.6268ZM234.279 51.475L235.656 50.989C235.753 51.799 236.369 52.447 237.471 52.447C238.329 52.447 238.799 51.961 238.799 51.4102C238.799 50.9242 238.443 50.5516 237.795 50.4058L236.466 50.1142C235.251 49.855 234.522 49.0288 234.522 47.9272C234.522 46.5988 235.77 45.4648 237.292 45.4648C239.431 45.4648 240.095 46.858 240.257 47.5546L238.912 48.0568C238.848 47.6518 238.524 46.7608 237.292 46.7608C236.515 46.7608 235.996 47.263 235.996 47.7976C235.996 48.2674 236.288 48.6076 236.887 48.7372L238.151 49.0126C239.56 49.3204 240.306 50.179 240.306 51.3292C240.306 52.4308 239.382 53.743 237.454 53.743C235.316 53.743 234.409 52.366 234.279 51.475ZM243.83 53.5H242.324V45.7078H243.83V53.5ZM241.984 42.7594C241.984 42.1438 242.47 41.6578 243.069 41.6578C243.685 41.6578 244.171 42.1438 244.171 42.7594C244.171 43.3588 243.685 43.8448 243.069 43.8448C242.47 43.8448 241.984 43.3588 241.984 42.7594ZM248.474 43.2454V45.7078H250.158V47.0848H248.474V51.1348C248.474 51.8476 248.765 52.204 249.559 52.204C249.753 52.204 250.029 52.1716 250.158 52.1392V53.4352C250.029 53.4838 249.64 53.581 249.122 53.581C247.793 53.581 246.951 52.771 246.951 51.3616V47.0848H245.46V45.7078H245.882C246.724 45.7078 247.08 45.1894 247.08 44.509V43.2454H248.474ZM254.195 56.7562H252.527L254.471 52.6414L251.117 45.7078H252.867L255.297 51.0862L257.63 45.7078H259.266L254.195 56.7562Z" fill="black"/>
</svg>
