<svg width="267" height="162" viewBox="0 0 267 162" fill="none" xmlns="http://www.w3.org/2000/svg">
<g filter="url(#filter0_i_88_392)">
<path d="M99.0679 -57.8863C95.2295 -59.3948 90.8749 -59.5331 87.6243 -59.6364C87.0819 -59.6536 86.5701 -59.6699 86.0967 -59.6914C82.2162 -59.8675 80.0814 -60.3208 78.6125 -61.5447C72.1088 -66.9639 67.4274 -74.4143 62.2851 -82.5983C61.3864 -84.0287 60.4735 -85.4815 59.5344 -86.9498C53.491 -96.3985 46.3541 -106.42 34.8359 -111.483C17.1027 -119.278 -5.46115 -113.212 -19.9907 -102.324C-28.075 -96.2652 -31.4466 -87.062 -33.9615 -78.8268C-34.4228 -77.3163 -34.8567 -75.8392 -35.2802 -74.3978C-37.3097 -67.4893 -39.0991 -61.3978 -42.5145 -56.3519C-46.4125 -50.5927 -52.0489 -46.0278 -58.2975 -40.9669C-59.8309 -39.725 -61.4012 -38.4532 -62.9917 -37.1266C-70.6325 -30.7536 -78.6546 -23.1063 -81.0702 -11.928C-83.3109 -1.55923 -81.2582 8.73669 -77.5311 18.1619C-73.8076 27.5782 -68.2614 36.4994 -63.0619 44.2576C-52.7118 59.7008 -37.2951 71.0786 -21.1413 79.0377C-16.9086 81.1232 -12.3907 81.9484 -8.09739 82.2937C-4.74399 82.5633 -1.25185 82.5521 1.96873 82.5418C2.80489 82.5392 3.62275 82.5365 4.41512 82.5389C12.6733 82.5636 18.4801 83.197 22.5143 86.9341C25.1831 89.4064 26.9958 93.2692 28.3118 98.4965C29.3554 102.642 29.971 107.104 30.6185 111.797C30.7918 113.053 30.9673 114.326 31.1539 115.613C31.9951 121.414 33.0793 127.656 35.5035 132.69C38.0743 138.028 42.3562 142.384 49.3736 143.486C57.0223 144.688 62.5445 140.592 66.4069 135.641C70.0975 130.909 73.0159 124.495 75.622 118.767L75.7333 118.522C78.5162 112.406 80.9924 107.01 83.896 103.208C86.7096 99.5242 89.107 98.3682 91.7388 98.6673C98.2993 99.4128 104.046 102.612 109.628 107.543C115.279 112.535 120.419 118.982 125.897 125.878L126.055 126.076C131.362 132.758 137.004 139.862 143.374 145.494C149.876 151.242 157.466 155.765 166.749 156.83C180.335 158.388 189.804 149.148 196.968 139.63C199.962 135.652 202.815 131.262 205.539 127.072C206.143 126.142 206.741 125.222 207.333 124.318C210.667 119.227 213.831 114.612 217.147 110.946C220.802 106.903 224.921 103.003 229.239 98.9762C229.681 98.5637 230.126 98.1496 230.573 97.7339C234.434 94.1381 238.425 90.4223 242.136 86.5594C250.408 77.9507 257.886 68.0309 260.298 55.4236C262.591 43.4393 262.738 29.2368 259.686 16.2963C256.646 3.40542 250.26 -8.87827 238.918 -15.9707C222.289 -26.3697 203.081 -27.1626 184.625 -26.7491C181.25 -26.6735 177.905 -26.5594 174.594 -26.4464C159.334 -25.9258 144.774 -25.429 131.12 -28.8333C129.897 -29.1382 128.752 -30.2334 126.902 -33.8832C126.66 -34.36 126.388 -34.917 126.097 -35.5144C125.48 -36.7783 124.775 -38.2229 124.08 -39.4712C122.99 -41.4274 121.572 -43.5948 119.575 -45.3831C113.519 -50.8046 106.531 -54.9532 99.0679 -57.8863Z" stroke="#C7E0FC" stroke-width="10"/>
</g>
<defs>
<filter id="filter0_i_88_392" x="-87.0009" y="-120.012" width="354.001" height="286.017" filterUnits="userSpaceOnUse" color-interpolation-filters="sRGB">
<feFlood flood-opacity="0" result="BackgroundImageFix"/>
<feBlend mode="normal" in="SourceGraphic" in2="BackgroundImageFix" result="shape"/>
<feColorMatrix in="SourceAlpha" type="matrix" values="0 0 0 0 0 0 0 0 0 0 0 0 0 0 0 0 0 0 127 0" result="hardAlpha"/>
<feOffset dy="8"/>
<feGaussianBlur stdDeviation="2"/>
<feComposite in2="hardAlpha" operator="arithmetic" k2="-1" k3="1"/>
<feColorMatrix type="matrix" values="0 0 0 0 0 0 0 0 0 0 0 0 0 0 0 0 0 0 1 0"/>
<feBlend mode="normal" in2="shape" result="effect1_innerShadow_88_392"/>
</filter>
</defs>
</svg>
