<svg width="301" height="217" viewBox="0 0 301 217" fill="none" xmlns="http://www.w3.org/2000/svg">
<path fill-rule="evenodd" clip-rule="evenodd" d="M85.8996 24.6859C93.3295 3.17845 21.1376 -6.94717 37.5777 -22.6668C57.9744 -42.1697 95.1293 4.79627 120.211 -8.12216C136.473 -16.4978 111.975 -44.129 114.459 -62.2644C119.458 -98.7547 105.361 -167.44 142.15 -168.256C179.909 -169.093 147.269 -73.6288 183.739 -63.8014C221.829 -53.5373 240.442 -129.859 279.868 -131.145C304.139 -131.937 306.87 -90.9199 315.206 -68.0904C322.907 -46.9982 322.27 -24.3004 326.903 -2.32774C331.707 20.4538 340.808 41.8108 343.262 64.9644C346.166 92.3518 370.221 145.947 342.721 146.883C284.771 148.855 242.141 48.9922 188.183 70.243C146.724 86.5717 241.46 180.489 202.493 202.111C166.523 222.069 189.746 88.3381 148.792 92.1C97.3999 96.8207 107.433 203.331 57.2662 215.451C24.3737 223.398 68.2771 145.93 55.1014 114.735C46.8917 95.2984 -5.6423 102.643 1.18624 82.6772C12.3613 50.0031 74.6242 57.3255 85.8996 24.6859Z" fill="#ED833A"/>
</svg>
