<svg width="393" height="262" viewBox="0 0 393 262" fill="none" xmlns="http://www.w3.org/2000/svg">
<path fill-rule="evenodd" clip-rule="evenodd" d="M165.685 133.58C167.845 152.296 138.678 170.798 148.534 186.876C157.783 201.964 188.833 178.293 200.986 191.164C209.381 200.054 174.04 212.022 181.457 221.741C211.304 260.853 312.073 268.242 294.905 314.236C278.619 357.869 200.923 246.612 162.399 272.801C127.856 296.283 199.863 364.045 173.729 396.612C155.609 419.192 133.135 352.978 105.739 343.407C87.5431 337.049 68.4066 350.725 49.3028 353.14C19.8707 356.86 -19.861 384.732 -38.5343 361.644C-58.5896 336.848 -33.2824 297.349 -18.69 269.074C-6.72169 245.884 49.5907 238.066 37.0985 215.094C14.3289 173.224 -62.425 186.279 -86.1853 144.96C-98.8527 122.932 -53.9242 106.475 -35.1998 89.3694C-17.9126 73.5766 -0.375799 36.7491 20.4795 47.5159C62.9117 69.4222 61.1897 142.491 104.906 161.701C126.749 171.3 116.819 109.35 138.433 99.3492C151.761 93.1827 164.001 118.985 165.685 133.58Z" fill="#7961FF"/>
<path fill-rule="evenodd" clip-rule="evenodd" d="M349.831 219.876C336.621 199.34 290.555 181.468 305.609 162.256C320.898 142.744 353.656 201.165 374.73 188.098C395.434 175.261 356.071 114.203 380.386 115.89C407.636 117.78 384.805 188.148 412.003 190.684C441.642 193.447 441.981 132.867 470.477 124.288C485.737 119.694 482.959 153.314 491.542 166.738C499.362 178.968 521.428 185.81 518.953 200.106C515.697 218.913 483.664 221.813 478.812 240.273C475.089 254.436 511.341 273.003 498.127 279.337C477.293 289.325 445.312 244.647 431.334 263.033C414.47 285.216 463.416 320.222 448.943 344.033C438.807 360.708 425.144 305.762 405.617 305.341C387.085 304.942 382.442 336.948 364.674 342.216C349.582 346.689 321.19 346.562 319.215 330.955C315.892 304.682 344.537 285.054 354.33 260.452C356.901 253.996 356.264 246.722 355.498 239.814C354.73 232.888 353.602 225.738 349.831 219.876Z" stroke="#509BF5" stroke-width="8"/>
<g filter="url(#filter0_ddi_92_463)">
<path fill-rule="evenodd" clip-rule="evenodd" d="M111.024 416.744C98.3913 409.081 86.276 392.897 71.9642 396.59C36.9638 405.621 9.66422 470.091 -20.8761 450.778C-49.3465 432.773 -2.95976 386.738 4.46295 353.903C7.67313 339.703 15.0912 324.937 10.7099 311.053C5.26911 293.812 -13.6739 284.502 -22.4303 268.681C-36.4683 243.318 -62.1879 217.94 -56.564 189.505C-52.0095 166.478 -18.4586 163.06 1.04878 149.973C20.2658 137.08 37.0752 103.764 58.6137 112.232C90.5393 124.784 82.9456 195.315 117.255 195.661C157.36 196.064 185.945 77.8538 203.863 113.695C227.224 160.423 112.314 221.8 148.952 259.063C188.42 299.206 262.227 200.089 312.921 224.616C345.655 240.455 254.278 269.685 237.081 301.704C228.38 317.904 250.064 339.476 242.283 356.137C234.431 372.952 206.484 371.752 196.936 387.668C183.786 409.589 203.279 453.349 179.048 461.55C153.101 470.332 134.439 430.948 111.024 416.744Z" stroke="#BCFAEC" stroke-width="10" shape-rendering="crispEdges"/>
</g>
<defs>
<filter id="filter0_ddi_92_463" x="-66.3561" y="96.9268" width="395.303" height="378.898" filterUnits="userSpaceOnUse" color-interpolation-filters="sRGB">
<feFlood flood-opacity="0" result="BackgroundImageFix"/>
<feColorMatrix in="SourceAlpha" type="matrix" values="0 0 0 0 0 0 0 0 0 0 0 0 0 0 0 0 0 0 127 0" result="hardAlpha"/>
<feOffset dy="4"/>
<feGaussianBlur stdDeviation="2"/>
<feComposite in2="hardAlpha" operator="out"/>
<feColorMatrix type="matrix" values="0 0 0 0 0.160213 0 0 0 0 0.0594975 0 0 0 0 0.374235 0 0 0 1 0"/>
<feBlend mode="normal" in2="BackgroundImageFix" result="effect1_dropShadow_92_463"/>
<feColorMatrix in="SourceAlpha" type="matrix" values="0 0 0 0 0 0 0 0 0 0 0 0 0 0 0 0 0 0 127 0" result="hardAlpha"/>
<feOffset dy="-1"/>
<feGaussianBlur stdDeviation="2"/>
<feComposite in2="hardAlpha" operator="out"/>
<feColorMatrix type="matrix" values="0 0 0 0 1 0 0 0 0 1 0 0 0 0 1 0 0 0 1 0"/>
<feBlend mode="normal" in2="effect1_dropShadow_92_463" result="effect2_dropShadow_92_463"/>
<feBlend mode="normal" in="SourceGraphic" in2="effect2_dropShadow_92_463" result="shape"/>
<feColorMatrix in="SourceAlpha" type="matrix" values="0 0 0 0 0 0 0 0 0 0 0 0 0 0 0 0 0 0 127 0" result="hardAlpha"/>
<feOffset dy="6"/>
<feGaussianBlur stdDeviation="3.1"/>
<feComposite in2="hardAlpha" operator="arithmetic" k2="-1" k3="1"/>
<feColorMatrix type="matrix" values="0 0 0 0 0.33388 0 0 0 0 0.335935 0 0 0 0 0.385189 0 0 0 1 0"/>
<feBlend mode="normal" in2="shape" result="effect3_innerShadow_92_463"/>
</filter>
</defs>
</svg>
