<svg width="393" height="244" viewBox="0 0 393 244" fill="none" xmlns="http://www.w3.org/2000/svg">
<path fill-rule="evenodd" clip-rule="evenodd" d="M454.427 -176.163C474.076 -157.703 495.988 -124.8 482.76 -101.004C460.324 -60.6434 374.206 -69.0137 369.425 -23.2509C365.292 16.3108 450.862 5.3769 467.915 41.0839C477.643 61.452 444.033 80.7962 425.343 93.8319C407.4 106.347 380.801 100.401 363.558 113.871C341.916 130.778 342.637 178.616 315.325 179.779C286.506 181.006 279.946 134.344 256.068 118.446C240.6 108.149 211.01 121.092 202.417 104.609C191.205 83.1007 232.235 44.881 211.318 32.6036C170.821 8.8334 90.0387 70.5429 71.1164 27.5417C54.0268 -11.2947 141.831 -19.1835 180.102 -38.3362C197.277 -46.9318 224.38 -38.2835 234.845 -54.3971C244.668 -69.5208 219.695 -89.2833 224.459 -106.633C228.356 -120.829 242.547 -134.978 257.216 -135.877C273.626 -136.882 284.594 -103.394 299.13 -111.207C334.16 -130.034 340.409 -184.961 377.075 -200.297C402.381 -210.882 434.622 -194.77 454.427 -176.163Z" fill="#DE8783"/>
<path fill-rule="evenodd" clip-rule="evenodd" d="M126.184 41.5624C126.191 41.5675 126.654 42.3038 129.186 42.9229C147.488 47.351 208.931 33.6208 248.318 2.39922C249.592 1.39487 251.436 1.59363 252.495 2.84301C253.539 4.0972 253.394 5.95177 252.164 7.01471C213.412 40.5048 197.07 59.8554 193.29 66.6984C199.267 64.1988 215.914 53.816 250.743 23.1984C251.829 22.2467 253.477 22.2324 254.586 23.1081C255.725 24.0083 256.063 25.5912 255.384 26.863C229.478 75.4949 229.341 98.4089 232.886 103.73C233.595 104.788 234.428 105.188 235.688 105.08C241.971 104.525 259.511 90.1712 280.956 39.8193C281.521 38.489 282.965 37.7588 284.38 38.0879C285.79 38.4177 286.779 39.7103 286.711 41.1583C284.516 88.886 286.954 108.676 288.799 114.816C291.815 107.74 296.83 82.6638 298.784 30.5164C298.844 28.9039 300.173 27.6372 301.792 27.6541C303.411 27.6669 304.73 28.9599 304.777 30.5694C306.198 75.8982 323.656 102.399 340.339 108.506C347.189 111.025 353.297 109.813 357.531 105.092C365.711 95.9674 367.599 72.5242 348.361 34.1021C347.7 32.7909 348.091 31.2047 349.276 30.3487C350.46 29.4926 352.092 29.6408 353.141 30.6569C391.002 68.0035 408.842 80.5715 415.013 83.4918C411.536 76.1887 394.964 54.2537 354.316 14.804C353.151 13.6737 353.091 11.8317 354.181 10.6443C355.265 9.4536 357.139 9.35812 358.342 10.3992C399.677 45.7742 423.151 61.6697 432.296 66.3178C426.972 59.2947 411.196 42.9384 375.2 12.5321C374.072 11.5781 373.799 9.95276 374.562 8.69526C375.321 7.43855 376.888 6.92879 378.259 7.48805C429.714 28.5708 452.045 33.8542 459.302 34.3723C453.358 29.1984 431.279 15.6033 373.254 -7.64178C371.748 -8.25321 370.988 -9.93147 371.537 -11.4503C372.089 -12.97 373.753 -13.7674 375.29 -13.2543C429.078 4.64473 457.932 10.8967 468.605 11.8939C460.596 7.21979 438.716 -2.37415 391.626 -17.7235C390.216 -18.172 389.343 -19.6027 389.58 -21.0587C389.816 -22.5189 391.085 -23.5806 392.57 -23.5577C450.302 -22.7062 473.989 -25.8969 481.31 -28.0607C472.396 -31.1769 441.588 -35.2192 382.048 -35.6599C380.432 -35.671 379.104 -36.9625 379.056 -38.587C379.014 -40.2039 380.267 -41.5578 381.885 -41.6396C439.596 -44.549 470.806 -49.1958 481.545 -52.3767C472.249 -53.8933 447.374 -54.964 395.107 -52.0062C393.626 -51.922 392.292 -52.9364 391.988 -54.392C391.677 -55.8444 392.487 -57.298 393.879 -57.8031C456.039 -80.3765 480.297 -100.039 481.435 -107.753C481.556 -108.562 481.369 -109.025 480.721 -109.515C474.636 -114.005 444.28 -111.323 385.141 -85.0518C383.78 -84.4493 382.183 -84.9273 381.376 -86.1937C380.575 -87.4526 380.822 -89.1043 381.952 -90.0689C426.726 -128.157 443.621 -146.793 448.507 -153.827C438.935 -149.449 412.121 -131.024 365.686 -90.9809C364.459 -89.9229 362.607 -90.0471 361.509 -91.2372C360.411 -92.4339 360.462 -94.2838 361.627 -95.4055C406.515 -138.711 417.548 -168.984 414.014 -178.766C413.295 -180.766 411.973 -181.776 409.855 -181.958C399.545 -182.821 373.261 -164.331 343.107 -109.846C342.32 -108.431 340.548 -107.902 339.106 -108.65C337.662 -109.386 337.07 -111.156 337.773 -112.613C364.427 -167.823 375.37 -198.561 377.217 -209.073C371.644 -202.402 358.036 -181.151 332.908 -128.211C332.273 -126.863 330.74 -126.2 329.314 -126.646C327.891 -127.092 327 -128.513 327.234 -129.986C335.903 -184.672 337.266 -210.45 336.558 -219.831C332.213 -209.593 324.138 -178.152 315.094 -118.678C314.853 -117.077 313.377 -115.968 311.765 -116.178C310.151 -116.383 308.993 -117.834 309.146 -119.444C314.732 -178.228 304.466 -207.405 295.906 -213.219C295.732 -213.337 295.562 -213.446 295.387 -213.546C293.513 -214.621 291.802 -214.519 290.012 -213.226C281.44 -207.032 273.28 -176.075 285.935 -116.19C286.269 -114.602 285.28 -113.043 283.703 -112.674C282.124 -112.306 280.526 -113.258 280.105 -114.821C264.353 -172.75 252.524 -201.845 247.196 -209.867C247.021 -202.074 250.09 -178.088 265.763 -122.068C266.159 -120.641 265.453 -119.142 264.102 -118.543C262.745 -117.946 261.151 -118.44 260.35 -119.677C233.179 -162.083 218.165 -181.123 211.55 -187.774C215.247 -177.607 228.741 -150.959 260.029 -102.786C260.913 -101.424 260.555 -99.6135 259.222 -98.6994C257.891 -97.7878 256.073 -98.095 255.1 -99.4056C220.666 -146.134 199.751 -168.053 192.14 -173.222L192.043 -173.288C194.383 -166.364 205.271 -145.826 239.181 -100.54C240.067 -99.3575 239.96 -97.7083 238.93 -96.6572C237.9 -95.6061 236.262 -95.4191 235.044 -96.3259C196.095 -124.143 176.028 -135.617 167.765 -139.135C174.672 -131.315 196.203 -112.27 241.277 -80.524C242.604 -79.5901 242.95 -77.7781 242.064 -76.4307C241.178 -75.0833 239.375 -74.6908 237.991 -75.5406C189.086 -105.662 163.398 -116.554 155.337 -118.205C159.791 -112.874 176.666 -98.4569 222.917 -70.4919C224.11 -69.7828 224.703 -68.1745 224.158 -66.8158C223.618 -65.4536 222.165 -64.6936 220.728 -65.0163C163.463 -77.8986 140.691 -72.5309 136.649 -67.8906C135.947 -67.0863 135.82 -66.3384 136.208 -65.31C138.934 -58.0985 163.323 -44.4546 219.401 -36.4677C220.849 -36.2676 221.939 -35.0436 221.99 -33.5901C222.039 -32.1316 221.03 -30.8603 219.599 -30.5722C176.01 -21.8439 156.105 -15.3338 149.152 -11.9094C158.213 -11.2345 184.561 -13.2138 234.965 -23.6918C236.575 -24.0243 238.161 -23.0012 238.518 -21.3981C238.877 -19.7933 237.876 -18.2066 236.272 -17.845C187.859 -6.89187 138.856 14.251 122.606 23.8069C131.009 22.0132 149.617 16.766 190.367 1.82153C191.918 1.25434 193.642 2.05333 194.226 3.60095C194.577 4.54348 194.425 5.54827 193.903 6.31647C193.564 6.81543 193.075 7.21973 192.467 7.44176C126.606 31.5873 126.17 41.4701 126.184 41.5624V41.5624ZM123.881 46.6768C121.093 44.7834 120.778 42.3288 120.862 40.9538C121.099 37.0666 125.446 32.4613 133.855 27.1689C116.22 31.9966 114.374 30.3098 113.262 29.3124C112.239 28.3908 111.84 27.0334 112.19 25.6839C113.75 19.6439 145.818 4.40122 182.968 -8.49776C163.506 -5.85595 145.685 -4.65083 142.212 -8.51366C141.245 -9.59642 140.938 -11.0531 141.389 -12.4172C143.52 -18.8811 173.362 -26.8473 203.124 -33.2735C163.144 -40.5261 135.571 -51.9004 131.251 -63.3521C130.084 -66.4394 130.621 -69.4912 132.765 -71.9489C140.349 -80.6556 167.788 -81.4328 206.001 -74.3806C179.981 -90.6777 148.546 -112.078 148.71 -120.225C148.741 -121.773 149.539 -123.082 150.905 -123.821C156.284 -126.726 175.675 -118.012 195.654 -107.372C176.664 -122.247 159.405 -137.384 159.906 -142.943C160.029 -144.328 160.862 -145.501 162.122 -146.074C168.198 -148.834 196.61 -130.88 224.084 -111.874C205.252 -137.851 183.347 -170.546 186.562 -177.984C187.164 -179.379 188.383 -180.275 189.905 -180.443C195.991 -181.101 211.266 -165.001 226.414 -146.83C213.837 -168.465 203.028 -189.612 205.579 -194.583C206.214 -195.811 207.416 -196.582 208.8 -196.641C215.578 -196.951 236.26 -168.283 255.57 -139.01C247.072 -171.211 238.07 -210.999 243.73 -216.708C244.781 -217.769 246.222 -218.154 247.678 -217.768C254.716 -215.874 265.712 -185.634 274.478 -157.634C272.211 -191.178 278.174 -211.703 287.057 -218.12C290.767 -220.803 294.981 -221.032 298.93 -218.769C310.265 -212.203 315.7 -189.446 316.924 -162.444C322.566 -192.846 330.166 -226.351 336.602 -228.813C337.909 -229.31 339.322 -229.091 340.426 -228.2C346.016 -223.675 342.124 -185.97 336.729 -148.842C351.944 -179.784 371.761 -216.911 379.485 -217.485C380.91 -217.589 382.241 -216.955 383.056 -215.767C387.072 -209.908 374.731 -178.41 362.339 -150.284C382.548 -177.174 400.221 -188.863 410.857 -187.967C415.342 -187.595 418.651 -185.048 420.181 -180.816C423.832 -170.72 417.098 -150.52 396.266 -123.92C420.128 -143.076 447.237 -163.024 453.978 -160.658C455.336 -160.183 456.315 -159.053 456.58 -157.642C458.051 -149.929 426.976 -120.895 400.979 -98.1636C443.734 -115.484 475.019 -121.673 484.839 -114.347C487.234 -112.533 488.312 -109.896 487.875 -106.928C486.073 -94.7314 457.764 -76.5283 414.203 -59.0437C450.436 -60.6343 487.168 -60.7138 490.979 -54.9436C491.742 -53.7836 491.825 -52.356 491.202 -51.1232C488.667 -46.0914 464.795 -42.4082 439.413 -39.8804C463.691 -38.2913 486.307 -35.3994 489.352 -30.0843C490.104 -28.7693 490.098 -27.2689 489.334 -25.9731C485.236 -19.026 444.893 -17.5682 411.949 -17.5603C444.641 -6.41476 477.067 6.19162 478.475 12.7834C478.766 14.1354 478.32 15.4922 477.286 16.4166C473.124 20.1275 450.166 15.066 426.326 8.42762C447.402 18.3982 466.537 29.024 467.418 35.0839C467.638 36.6042 467.074 38.0176 465.864 38.9533C459.458 43.928 422.825 31.1487 393.382 19.6193C418.163 41.1572 442.131 63.9225 440.952 70.4703C440.703 71.8418 439.768 72.9349 438.45 73.3999C433.149 75.2613 414.29 62.3305 395.351 47.7324C410.306 64.2245 423.612 80.953 422.12 86.8378C421.736 88.3446 420.658 89.4452 419.161 89.8534C411.245 92.0247 382.77 66.7582 360.859 45.78C372.332 74.1248 373.116 97.1507 362.578 108.909C356.692 115.474 348.05 117.304 338.868 113.929C320.857 107.299 309.291 86.1966 303.56 62.26C301.616 87.586 297.894 118.321 291.181 121.8C289.794 122.517 288.244 122.446 286.926 121.601L286.854 121.552C280.358 117.144 279.95 83.4236 280.736 56.1136C265.004 89.2154 248.669 109.804 236.871 110.843C233.416 111.144 230.452 109.719 228.526 106.831C221.972 97.0003 227.949 70.5465 243.772 37.5461C221.12 56.8131 196.935 75.2778 189.921 72.8877C188.452 72.3773 187.443 71.2227 187.139 69.7031C185.745 62.7208 205.155 42.5181 222.878 25.7729C205.537 34.5627 188.95 39.954 178.436 42.8608C153.807 49.6738 132.786 51.4043 124.883 47.2706C124.517 47.083 124.182 46.881 123.881 46.6768V46.6768Z" fill="#FD4124"/>
<path fill-rule="evenodd" clip-rule="evenodd" d="M226.537 -46.0047C226.533 -47.0107 226.479 -47.9996 226.376 -48.9738C225.493 -57.3633 220.72 -63.6928 212.576 -67.2719C183.984 -79.8443 135.269 -55.7686 102.244 -31.333C101.322 -30.6494 100.045 -30.7122 99.1924 -31.4811C51.0756 -74.8002 4.90373 -71.4467 -19.5104 -48.9027C-38.943 -30.9556 -47.3865 1.64748 -29.0588 39.1582C-14.9633 36.0886 5.1018 32.6595 33.6419 28.9387C34.5586 28.822 35.4628 29.2336 35.97 30.0061C36.4797 30.7762 36.505 31.7676 36.0276 32.5654C8.05405 79.5818 13.8732 121.145 35.6494 134.17C50.0604 142.789 75.3582 138.791 99.2294 99.1548C99.5796 98.5721 100.155 98.1647 100.818 98.0344C101.481 97.8993 102.172 98.0488 102.719 98.4472C135.923 122.64 184.815 146.356 213.312 133.577C221.43 129.935 226.156 123.574 226.978 115.178C229.099 93.4946 206.501 63.6227 166.522 35.2837C165.249 34.3837 165.241 32.2705 166.507 31.3612C204.492 4.01743 226.615 -24.6071 226.537 -46.0047M-31.6872 44.1023C-55.7505 49.7346 -57.3133 53.3811 -57.3868 53.6154C-57.1843 53.8778 -54.3984 57.9739 -21.3646 60.9795C-25.3799 55.2819 -28.8072 49.648 -31.6872 44.1023M-62.5298 53.3937C-62.5387 50.9661 -61.4467 46.225 -34.1241 39.7974C-52.8936 0.499556 -43.6645 -33.8477 -23.0156 -52.937C2.73849 -76.7387 50.8126 -80.8411 100.633 -36.8548C154.248 -76.0849 194.359 -80.8797 214.118 -72.1825C223.79 -67.9248 229.701 -60.0336 230.761 -49.9672C233.189 -27.0771 211.131 3.75519 171.664 32.8438C211.341 61.6424 233.583 92.3076 231.368 115.217C230.38 125.291 224.527 133.228 214.887 137.554C195.254 146.366 155.31 141.925 101.673 103.44C76.3637 144.029 48.9168 147.477 32.9018 137.888C9.7953 124.05 2.53555 81.7808 29.1564 33.9066C3.73039 37.3131 -14.2566 40.4534 -26.9803 43.1811C-23.5881 49.4671 -19.4431 55.8759 -14.4729 62.3637C-13.8937 63.1242 -13.8152 64.1471 -14.2679 64.9837C-14.7207 65.8227 -15.6257 66.3135 -16.5762 66.2398C-56.863 63.0813 -62.4111 58.1353 -62.5238 53.7171C-62.5266 53.6133 -62.5294 53.5072 -62.5298 53.3937" fill="#F7E32D"/>
</svg>
