<svg width="79" height="24" viewBox="0 0 79 24" fill="none" xmlns="http://www.w3.org/2000/svg">
<g clip-path="url(#clip0_19_1355)">
<path d="M11.8465 0.5C5.30364 0.5 0 5.64819 0 11.9993C0 18.3504 5.30364 23.4986 11.8465 23.4986C18.3894 23.4986 23.6931 18.3504 23.6931 11.9993C23.6945 5.64819 18.3894 0.5 11.8465 0.5ZM17.2803 17.0871C17.0681 17.4263 16.6126 17.532 16.2646 17.326C13.4819 15.6754 9.98057 15.3033 5.85678 16.2178C5.45925 16.3057 5.06314 16.064 4.9726 15.6795C4.88206 15.2937 5.12963 14.9092 5.52857 14.8213C10.0414 13.8202 13.912 14.2514 17.0356 16.1025C17.3836 16.3071 17.4925 16.7493 17.2803 17.0871ZM18.7304 13.9548C18.463 14.3764 17.8943 14.5096 17.46 14.25C14.277 12.3509 9.42177 11.8002 5.65448 12.9098C5.16641 13.0526 4.65005 12.7862 4.50151 12.3124C4.35439 11.8386 4.63025 11.3388 5.1169 11.1946C9.42036 9.92713 14.7693 10.541 18.4248 12.723C18.8605 12.9825 18.9963 13.5346 18.7304 13.9548ZM18.8549 10.6948C15.0366 8.49349 8.73707 8.29163 5.09144 9.36548C4.50576 9.53851 3.88754 9.21718 3.70929 8.64867C3.53246 8.08015 3.86208 7.48006 4.44776 7.30703C8.63238 6.07388 15.5898 6.31282 19.9852 8.84503C20.5115 9.14852 20.684 9.80903 20.3728 10.3185C20.0602 10.8293 19.3797 10.9982 18.8549 10.6948Z" fill="white"/>
<path d="M32.2321 11.1163C30.1864 10.6426 29.8229 10.3103 29.8229 9.61266C29.8229 8.95352 30.4623 8.5086 31.4144 8.5086C32.3368 8.5086 33.2506 8.84641 34.2098 9.53988C34.2395 9.56048 34.2749 9.56872 34.3102 9.56323C34.3456 9.55773 34.3781 9.53851 34.3979 9.50967L35.3967 8.14332C35.4377 8.08702 35.4264 8.01012 35.3712 7.96618C34.2296 7.0777 32.9451 6.64514 31.4427 6.64514C29.2344 6.64514 27.6909 7.93184 27.6909 9.77195C27.6909 11.7466 29.0222 12.4442 31.321 12.9839C33.2789 13.422 33.6086 13.7886 33.6086 14.4436C33.6086 15.1701 32.9408 15.6219 31.8657 15.6219C30.6717 15.6219 29.6984 15.2319 28.6077 14.3159C28.5808 14.294 28.544 14.283 28.51 14.2843C28.4747 14.2871 28.4407 14.3036 28.4181 14.3297L27.2977 15.6232C27.251 15.6768 27.2566 15.7578 27.3104 15.8031C28.578 16.9017 30.1369 17.4812 31.819 17.4812C34.1985 17.4812 35.7362 16.2192 35.7362 14.2651C35.7405 12.6173 34.7233 11.7041 32.2321 11.1163Z" fill="white"/>
<path d="M41.1248 9.15814C40.0935 9.15814 39.2475 9.55225 38.5486 10.3611V9.45201C38.5486 9.3806 38.4892 9.32155 38.4142 9.32155H36.5836C36.5101 9.32155 36.4492 9.3806 36.4492 9.45201V19.5589C36.4492 19.6303 36.5087 19.6893 36.5836 19.6893H38.4157C38.4892 19.6893 38.5501 19.6303 38.5501 19.5589V16.3689C39.2475 17.1297 40.0949 17.5004 41.1262 17.5004C43.0431 17.5004 44.984 16.0682 44.984 13.33C44.9812 10.5904 43.0417 9.15814 41.1248 9.15814ZM42.8521 13.3286C42.8521 14.7224 41.9679 15.696 40.7004 15.696C39.4484 15.696 38.5034 14.6785 38.5034 13.3286C38.5034 11.9787 39.4484 10.9612 40.7004 10.9612C41.9467 10.9625 42.8521 11.9568 42.8521 13.3286Z" fill="white"/>
<path d="M49.9552 9.15814C47.4866 9.15814 45.5527 11.0037 45.5527 13.3588C45.5527 15.6892 47.4738 17.5142 49.9241 17.5142C52.4012 17.5142 54.3407 15.6754 54.3407 13.3286C54.3421 10.99 52.4153 9.15814 49.9552 9.15814ZM49.9552 15.7111C48.6424 15.7111 47.6521 14.6867 47.6521 13.33C47.6521 11.9664 48.607 10.9777 49.9241 10.9777C51.2454 10.9777 52.2427 12.0021 52.2427 13.3602C52.2427 14.7224 51.2807 15.7111 49.9552 15.7111Z" fill="white"/>
<path d="M59.6132 9.3202H57.5973V7.32079C57.5973 7.24939 57.5379 7.19034 57.4629 7.19034H55.6309C55.5573 7.19034 55.4965 7.24939 55.4965 7.32079V9.32157H54.6152C54.5416 9.32157 54.4822 9.38062 54.4822 9.45203V10.9804C54.4822 11.0518 54.5416 11.1109 54.6152 11.1109H55.4965V15.0644C55.4965 16.6614 56.3156 17.4716 57.9312 17.4716C58.5876 17.4716 59.1336 17.3398 59.6472 17.0569C59.6882 17.0349 59.7151 16.991 59.7151 16.9443V15.4887C59.7151 15.4434 59.691 15.4008 59.6514 15.3775C59.6118 15.3527 59.5623 15.3514 59.5213 15.372C59.169 15.5436 58.8267 15.6233 58.4461 15.6233C57.859 15.6233 57.5959 15.3637 57.5959 14.7842V11.1095H59.6118C59.6854 11.1095 59.7448 11.0504 59.7448 10.979V9.45065C59.7476 9.37924 59.6868 9.3202 59.6132 9.3202Z" fill="white"/>
<path d="M66.6357 9.32842V9.08261C66.6357 8.3603 66.9215 8.03759 67.5609 8.03759C67.9429 8.03759 68.2498 8.11175 68.5936 8.22298C68.6361 8.23534 68.6799 8.22984 68.7139 8.20513C68.7492 8.18041 68.769 8.14058 68.769 8.09939V6.60121C68.769 6.54353 68.7308 6.49272 68.6743 6.47625C68.3107 6.37188 67.8467 6.2634 67.1521 6.2634C65.4601 6.2634 64.566 7.18757 64.566 8.93705V9.31331H63.6861C63.6125 9.31331 63.5517 9.37236 63.5517 9.44377V10.979C63.5517 11.0504 63.6125 11.1095 63.6861 11.1095H64.566V17.2079C64.566 17.2793 64.6254 17.3384 64.699 17.3384H66.531C66.6046 17.3384 66.6654 17.2793 66.6654 17.2079V11.1095H68.3758L70.9957 17.2066C70.6987 17.8479 70.4058 17.9742 70.0069 17.9742C69.6843 17.9742 69.3448 17.8808 68.9968 17.6968C68.9643 17.6789 68.9261 17.6762 68.8907 17.6872C68.8553 17.6995 68.8256 17.7243 68.8115 17.7572L68.1904 19.0796C68.1607 19.1414 68.1862 19.2156 68.2484 19.2472C68.8964 19.5877 69.482 19.7333 70.2049 19.7333C71.5574 19.7333 72.3043 19.1222 72.9636 17.4771L76.1409 9.50693C76.1565 9.46711 76.1523 9.42179 76.1268 9.38609C76.1013 9.35039 76.0603 9.32979 76.0164 9.32979H74.1095C74.0529 9.32979 74.0005 9.36549 73.9821 9.41768L72.0285 14.8336L69.8895 9.41218C69.8697 9.36137 69.8201 9.32842 69.765 9.32842H66.6357Z" fill="white"/>
<path d="M62.5642 9.32019H60.7322C60.6586 9.32019 60.5978 9.37924 60.5978 9.45065V17.2066C60.5978 17.278 60.6586 17.337 60.7322 17.337H62.5642C62.6378 17.337 62.6986 17.278 62.6986 17.2066V9.45065C62.6986 9.37924 62.6378 9.32019 62.5642 9.32019Z" fill="white"/>
<path d="M61.6588 5.78827C60.9331 5.78827 60.3446 6.35815 60.3446 7.06261C60.3446 7.76707 60.9331 8.33833 61.6588 8.33833C62.3846 8.33833 62.9717 7.76707 62.9717 7.06261C62.9717 6.35953 62.3832 5.78827 61.6588 5.78827Z" fill="white"/>
<path d="M77.7042 11.814C76.9798 11.814 76.4154 11.2496 76.4154 10.563C76.4154 9.87634 76.9869 9.30508 77.7112 9.30508C78.4356 9.30508 79 9.86948 79 10.5561C79 11.2427 78.4285 11.814 77.7042 11.814ZM77.7098 9.43005C77.0492 9.43005 76.5498 9.93951 76.5498 10.563C76.5498 11.1864 77.0463 11.689 77.7027 11.689C78.3634 11.689 78.8628 11.1795 78.8628 10.5561C78.8642 9.93264 78.3676 9.43005 77.7098 9.43005ZM77.9956 10.6852L78.3606 11.1809H78.0536L77.7254 10.7264H77.4439V11.1809H77.1864V9.8681H77.789C78.1031 9.8681 78.3096 10.0246 78.3096 10.2869C78.3096 10.5012 78.1823 10.633 77.9956 10.6852ZM77.7791 10.0919H77.4439V10.508H77.7791C77.9461 10.508 78.0465 10.4284 78.0465 10.3007C78.0465 10.1647 77.9461 10.0919 77.7791 10.0919Z" fill="white"/>
</g>
<defs>
<clipPath id="clip0_19_1355">
<rect width="79" height="23" fill="white" transform="translate(0 0.5)"/>
</clipPath>
</defs>
</svg>
