<svg width="132" height="34" viewBox="0 0 132 34" fill="none" xmlns="http://www.w3.org/2000/svg">
<circle cx="17" cy="17" r="17" fill="black" fill-opacity="0.4"/>
<path d="M23 11.1667V22.8333C23 23.1428 22.8946 23.4395 22.7071 23.6583C22.5196 23.8771 22.2652 24 22 24H19.5C19.2348 24 18.9804 23.8771 18.7929 23.6583C18.6054 23.4395 18.5 23.1428 18.5 22.8333V11.1667C18.5 10.8572 18.6054 10.5605 18.7929 10.3417C18.9804 10.1229 19.2348 10 19.5 10H22C22.2652 10 22.5196 10.1229 22.7071 10.3417C22.8946 10.5605 23 10.8572 23 11.1667ZM15.5 10H13C12.7348 10 12.4804 10.1229 12.2929 10.3417C12.1054 10.5605 12 10.8572 12 11.1667V22.8333C12 23.1428 12.1054 23.4395 12.2929 23.6583C12.4804 23.8771 12.7348 24 13 24H15.5C15.7652 24 16.0196 23.8771 16.2071 23.6583C16.3946 23.4395 16.5 23.1428 16.5 22.8333V11.1667C16.5 10.8572 16.3946 10.5605 16.2071 10.3417C16.0196 10.1229 15.7652 10 15.5 10Z" fill="white"/>
<circle cx="66" cy="17" r="17" fill="black" fill-opacity="0.4"/>
<path fill-rule="evenodd" clip-rule="evenodd" d="M63.6413 20.0462C63.2724 19.6769 62.772 19.4692 62.25 19.4687H59.625C59.451 19.4687 59.284 19.3996 59.161 19.2765C59.0379 19.1535 58.9688 18.9865 58.9688 18.8125V16.1875C58.9688 16.0134 59.0379 15.8465 59.161 15.7235C59.284 15.6004 59.451 15.5312 59.625 15.5312H62.25C62.772 15.5308 63.2724 15.3231 63.6413 14.9537L66.9002 11.6961C66.9495 11.6471 67.0121 11.6138 67.0803 11.6004C67.1485 11.587 67.2191 11.594 67.2833 11.6207C67.3475 11.6474 67.4023 11.6925 67.4408 11.7503C67.4794 11.8081 67.5 11.876 67.5 11.9455V23.0545C67.5 23.124 67.4794 23.1919 67.4408 23.2497C67.4023 23.3075 67.3475 23.3526 67.2833 23.3793C67.2191 23.406 67.1485 23.413 67.0803 23.3996C67.0121 23.3862 66.9495 23.3529 66.9002 23.3039L63.6413 20.0462ZM59.625 13.5625H62.25L65.5076 10.3049C65.8322 9.98043 66.2456 9.75949 66.6957 9.66999C67.1457 9.58049 67.6122 9.62644 68.0362 9.80204C68.4602 9.97764 68.8226 10.275 69.0775 10.6565C69.3325 11.038 69.4687 11.4866 69.4688 11.9455V23.0545C69.4687 23.5134 69.3325 23.9619 69.0775 24.3435C68.8226 24.725 68.4602 25.0224 68.0362 25.1979C67.6122 25.3735 67.1457 25.4195 66.6957 25.33C66.2456 25.2405 65.8322 25.0196 65.5076 24.6951L62.25 21.4375H59.625C58.9288 21.4375 58.2611 21.1609 57.7688 20.6687C57.2766 20.1764 57 19.5087 57 18.8125V16.1875C57 15.4913 57.2766 14.8236 57.7688 14.3313C58.2611 13.8391 58.9288 13.5625 59.625 13.5625ZM72.7815 21.3955C72.4586 21.8326 71.8286 21.8286 71.4441 21.4441C71.0595 21.0595 71.0713 20.4413 71.3653 19.9832C71.8422 19.2429 72.0951 18.3806 72.0938 17.5C72.0938 16.5852 71.826 15.7321 71.3653 15.0167C71.0713 14.56 71.0595 13.9405 71.4441 13.5559C71.8286 13.1714 72.4586 13.1674 72.7828 13.6045C73.5861 14.6939 74.0625 16.0431 74.0625 17.5C74.0647 18.9023 73.6156 20.2682 72.7815 21.3955Z" fill="white"/>
<circle cx="115" cy="17" r="17" fill="black" fill-opacity="0.4"/>
<path d="M120.845 21.7175C120.995 21.8672 121.079 22.0702 121.079 22.2819C121.079 22.4936 120.995 22.6967 120.845 22.8464C120.695 22.9961 120.492 23.0802 120.281 23.0802C120.069 23.0802 119.866 22.9961 119.716 22.8464L115.5 18.6289L111.283 22.845C111.133 22.9947 110.93 23.0788 110.718 23.0788C110.506 23.0788 110.303 22.9947 110.154 22.845C110.004 22.6953 109.92 22.4923 109.92 22.2806C109.92 22.0689 110.004 21.8658 110.154 21.7161L114.371 17.5L110.155 13.2825C110.005 13.1328 109.921 12.9298 109.921 12.7181C109.921 12.5064 110.005 12.3033 110.155 12.1536C110.305 12.0039 110.508 11.9198 110.719 11.9198C110.931 11.9198 111.134 12.0039 111.284 12.1536L115.5 16.3711L119.717 12.153C119.867 12.0033 120.07 11.9192 120.282 11.9192C120.494 11.9192 120.697 12.0033 120.846 12.153C120.996 12.3027 121.08 12.5057 121.08 12.7174C121.08 12.9291 120.996 13.1322 120.846 13.2819L116.629 17.5L120.845 21.7175Z" fill="white"/>
</svg>
